<svg width="443" height="349" viewBox="0 0 443 349" fill="none" xmlns="http://www.w3.org/2000/svg">
<path fill-rule="evenodd" clip-rule="evenodd" d="M152.678 1.3571C139.265 2.9801 134.405 4.0621 120.5 8.5271C105.968 13.1931 85.7752 23.1891 74.0002 31.5461C61.7152 40.2641 40.2762 61.7041 31.9692 73.5771C6.30623 110.261 -3.92477 151.357 1.52823 195.861C6.08323 233.038 21.8682 266.813 46.9812 293.116C63.1792 310.081 77.8702 321.057 97.0762 330.54C138.507 350.998 184.936 354.194 230 339.691C250.33 333.148 272.516 320.397 290.467 304.94C298.657 297.888 301.386 294.284 295.202 298.687C284.604 306.234 260.138 315.576 242.289 318.892C228.806 321.397 205.895 321.653 191.5 319.459C131.499 310.316 82.1242 265.013 67.6592 205.831C59.1822 171.145 62.5532 136.724 77.5322 105.019C97.7602 62.2071 136.471 31.4941 183.738 20.7591C195.351 18.1221 220.267 17.1241 233.589 18.7631C241.918 19.7871 257.548 23.1321 264.643 25.4071C270.134 27.1681 250.734 17.1561 240.5 12.9471C212.76 1.5391 183.307 -2.3479 152.678 1.3571ZM298.29 54.1201C289.067 56.4511 289.666 55.5981 288.481 68.0821C287.906 74.1431 287.593 74.8951 285.42 75.4401C282.273 76.2301 281.914 80.8311 285 80.8311C287.467 80.8311 287.483 81.4761 285.491 101.331C283.571 120.474 283.185 122.55 280.717 127.039C277.436 133.008 269.817 133.996 268.496 128.624C268.185 127.363 268.97 115.183 270.24 101.557L272.548 76.7831L266.524 77.4201C255.628 78.5731 253.527 79.2251 253.189 81.5601C252.88 83.6851 252.857 83.6881 250.939 81.7701C249.509 80.3401 247.62 79.8341 243.75 79.8411C226.061 79.8741 212.67 99.1151 212.711 124.441C212.737 140.762 218.786 149.15 230.456 149.045C237.439 148.982 243.254 145.947 247.247 140.283C248.973 137.834 250.65 135.831 250.973 135.831C251.297 135.831 252.053 137.133 252.654 138.725C256.331 148.467 273.803 146.663 281.858 135.709L284.615 131.961L286.437 135.343C292.336 146.298 310.115 142.345 319.668 127.955C319.806 127.749 321.074 128.954 322.487 130.634C330.952 140.694 351.747 137.692 363.403 124.727C367.831 119.803 374.612 109.11 373.814 108.311C372.66 107.157 369.101 109.49 366 113.433C358.052 123.538 346.44 127.704 340.505 122.581C338.476 120.829 337.773 119.101 337.33 114.775L336.76 109.219L341.13 107.949C357.632 103.153 368.439 85.1881 362.248 72.8451C359.798 67.9591 356.769 66.6531 349 67.1331C330.189 68.2961 318.409 84.7841 317.665 110.992C317.376 121.176 316.021 124.589 311.439 126.677C307.61 128.421 305.206 128.076 303.545 125.541C302.201 123.489 302.277 120.907 304.272 100.791L306.5 78.3311L310.148 78.0271C312.919 77.7961 313.937 77.1951 314.384 75.5271C315.348 71.9301 315.175 71.7791 310.868 72.4681L306.735 73.1291L307.399 66.2301C307.763 62.4361 308.313 57.6441 308.619 55.5811C309.271 51.1901 309.665 51.2461 298.29 54.1201ZM165.387 55.7801C144.108 59.1061 126.086 73.1611 122.842 88.9621C120.642 99.6741 125.253 106.818 134.372 106.827C137.781 106.831 138.089 106.643 136.939 105.258C136.19 104.355 135.445 100.085 135.19 95.2361C134.775 87.3161 134.946 86.3841 137.923 80.3351C143.105 69.8091 152.877 63.3281 165.315 62.1661C173.306 61.4201 177.964 62.8871 181.923 67.3971C187.02 73.2011 188.484 80.0941 188.492 98.3311C188.501 116.647 186.837 125.647 181.638 135.398C177.561 143.046 173.095 146.182 167.201 145.537C164.836 145.278 162.624 144.788 162.285 144.449C161.742 143.907 167.185 81.2011 168.602 71.6671L169.147 68.0041L159.991 70.3331C154.955 71.6151 150.577 72.9211 150.262 73.2361C149.668 73.8301 142.078 149.792 142.028 155.642L142 158.952L149.25 158.254C158.486 157.364 161 156.419 161 153.835V151.79L164.908 153.784C174.824 158.843 182.865 157.35 191.115 148.919C201.933 137.865 207.382 121.219 207.347 99.3311C207.331 88.9401 206.914 85.0771 205.269 80.0831C201.377 68.2671 194.735 60.4131 186.038 57.3441C180.745 55.4771 171.708 54.7921 165.387 55.7801ZM353.085 75.9901C355.824 81.1071 351.898 93.2151 345.85 98.3041C342.58 101.055 338.08 103.244 337.298 102.463C336.539 101.704 339.092 89.6611 341.214 83.9881C344.613 74.9051 350.413 70.9971 353.085 75.9901ZM251.055 89.3971C252.118 90.6781 252.123 93.7191 251.082 106.147C249.435 125.813 248.608 129.09 244.346 132.832C240.724 136.013 238.994 136.433 236.039 134.852C233.329 133.402 231.998 128.468 232.015 119.932C232.049 102.489 238.693 87.8311 246.565 87.8311C248.319 87.8311 250.34 88.5361 251.055 89.3971ZM431.83 133.175C427.611 134.365 423.961 135.561 423.719 135.835C423.476 136.108 422.998 151.308 422.656 169.613L422.035 202.895L427.268 202.228C430.145 201.86 432.651 201.432 432.836 201.276C433.146 201.015 443 133.515 443 131.656C443 130.418 440.308 130.784 431.83 133.175ZM389.159 151.327C384.571 152.621 380.568 153.93 380.262 154.235C379.827 154.671 378.877 162.379 378.063 172.081C378.028 172.493 377.1 172.831 376 172.831C374.459 172.831 374 173.498 374 175.737C374 178.19 374.325 178.559 376.082 178.099C378.015 177.594 378.124 177.869 377.601 181.943C377.291 184.356 376.522 193.081 375.891 201.331C374.463 219.994 372.46 226.323 367.298 228.48C364.173 229.785 363.546 229.764 361.271 228.273C358.783 226.642 358.745 226.437 359.379 217.97C361.708 186.859 361.454 184.074 355.857 179.364C353.455 177.343 351.763 176.831 347.488 176.831C340.902 176.831 338.252 177.793 333.611 181.868C329.339 185.618 329.572 187.234 331.338 166.089C332.391 153.478 332.354 151.895 331.013 152.274C330.181 152.509 325.891 153.652 321.481 154.813L313.461 156.926L310.715 191.248C309.093 211.531 307.322 227.772 306.387 230.951C305.189 235.025 303.554 237.545 299.652 241.331C294.695 246.142 294.49 246.236 294.23 243.831C294.082 242.456 295.042 228.281 296.365 212.331C297.688 196.381 298.684 183.231 298.58 183.11C298.476 182.988 294.253 183.398 289.195 184.021C280.545 185.086 280 185.292 280 187.492C280 188.778 279.55 189.831 279 189.831C278.45 189.831 278 189.453 278 188.992C278 187.819 273.366 185.831 270.634 185.831C260.936 185.831 250.404 193.412 245.255 204.097C241.106 212.709 239.761 218.749 239.52 229.854C239.406 235.092 238.779 240.375 238.127 241.594C236.685 244.288 232.023 246.831 228.525 246.831C224.176 246.831 223.935 244.111 226.035 218.661C227.093 205.829 227.968 194.614 227.979 193.738C227.998 192.306 227.084 192.271 218.929 193.392C213.94 194.078 209.698 194.8 209.503 194.995C208.865 195.633 206 234.215 206 242.166C206 254.957 210.486 260.831 220.254 260.831C227.586 260.831 239.243 253.52 241.226 247.678C241.533 246.773 242.621 247.441 244.545 249.717C251.43 257.863 263.256 257.805 271.75 249.584C273.787 247.613 274.995 246.978 274.986 247.885C274.95 251.691 273.412 253.985 269.267 256.415C262.545 260.354 257.255 265.527 255.971 269.418C254.735 273.164 255.405 279.404 257.31 281.877C261.707 287.588 271.103 288.577 279.797 284.245C288.107 280.104 291.464 273.698 292.626 259.765L293.286 251.854L297.394 249.446C299.654 248.122 302.359 246.092 303.406 244.935C306.007 242.061 306.733 242.292 306.213 245.831C305.887 248.057 306.171 248.831 307.314 248.831C309.153 248.831 324.41 246.747 324.706 246.455C324.82 246.343 325.61 237.27 326.462 226.292C327.314 215.313 328.492 203.963 329.08 201.069C331.054 191.351 337.881 186.668 341.662 192.438C343.232 194.833 343.269 196.403 342.121 211.76C340.814 229.264 341.054 232.327 344.137 237.463C349.607 246.575 366.377 244.342 373.441 233.562C375.582 230.294 376.64 230.123 377.522 232.9C378.503 235.991 383.884 238.823 388.782 238.827C396.438 238.834 405.05 233.88 409.423 226.953C412.079 222.745 415.67 212.168 414.754 211.252C413.197 209.695 410.106 212.266 408.51 216.443C405.63 223.986 396.116 227.898 394.026 222.4C392.93 219.517 396.161 177.255 397.584 175.874C398.088 175.385 399.85 174.838 401.5 174.658C403.858 174.401 404.563 173.79 404.795 171.8C405.075 169.406 404.871 169.29 401.024 169.657L396.957 170.045L397.515 164.188C397.821 160.967 398.296 156.194 398.57 153.581C398.845 150.968 398.716 148.863 398.284 148.902C397.853 148.942 393.747 150.033 389.159 151.327ZM195.459 163.089L189.417 163.95L187.103 197.141C185.831 215.395 184.477 231.658 184.094 233.28C183.507 235.771 181.563 231.168 171.57 203.63C165.064 185.7 159.363 170.423 158.902 169.68C157.594 167.576 145.594 168.216 138.896 170.747C135.814 171.912 130.864 174.56 127.896 176.631C110.863 188.518 106.928 214.313 121.315 219.764C123.985 220.776 130 221.256 130 220.458C130 220.253 129.02 217.891 127.821 215.208C125.01 208.916 124.795 199.159 127.322 192.609C129.844 186.072 142.217 174.908 140.652 180.581C139.876 183.394 132.543 270.712 133.045 271.167C133.618 271.687 143.794 270.371 144.476 269.688C144.754 269.41 146.415 254.468 148.168 236.484C149.92 218.5 151.653 204.133 152.019 204.558C152.385 204.983 157.78 218.992 164.008 235.688L175.332 266.045L180.416 265.416C183.212 265.07 187.321 264.535 189.546 264.226L193.593 263.665L197.876 213.161C200.232 185.384 202.011 162.561 201.83 162.443C201.648 162.325 198.781 162.615 195.459 163.089ZM212.923 167.754C207.238 173.44 209.795 183.486 217.414 185.399C222.76 186.74 228.428 183.519 229.85 178.331C232.659 168.079 220.313 160.364 212.923 167.754ZM277.316 195.628C278.807 197.275 278.819 198.836 277.459 214.378C276.643 223.702 275.498 232.786 274.915 234.565C272.771 241.11 265.251 243.98 261.405 239.722C259.737 237.875 259.506 236.039 259.548 224.972C259.588 214.543 259.98 211.281 261.786 206.331C265.426 196.353 273.153 191.028 277.316 195.628ZM422.388 213.811C418.998 215.181 416 219.759 416 223.566C416 228.56 421.392 233.831 426.5 233.831C429.375 233.831 430.959 233.072 433.6 230.431C436.241 227.79 437 226.206 437 223.331C437 220.456 436.241 218.872 433.6 216.231C430.105 212.736 426.81 212.025 422.388 213.811ZM273.361 265.581C272.487 272.485 270.052 276.331 266.553 276.331C260.108 276.331 261.127 269.117 268.32 263.827C270.561 262.179 272.747 260.831 273.178 260.831C273.609 260.831 273.691 262.968 273.361 265.581Z" fill="#18375A"/>
</svg>
