<svg width="443" height="349" viewBox="0 0 443 349" fill="none" xmlns="http://www.w3.org/2000/svg">
<path fill-rule="evenodd" clip-rule="evenodd" d="M152.573 1.3571C139.16 2.9801 134.3 4.0621 120.395 8.5271C105.863 13.1931 85.6702 23.1891 73.8952 31.5461C61.6102 40.2641 40.1713 61.7041 31.8643 73.5771C6.20125 110.261 -4.02975 151.357 1.42325 195.861C5.97825 233.038 21.7633 266.813 46.8763 293.116C63.0743 310.081 77.7652 321.057 96.9712 330.54C138.402 350.998 184.831 354.194 229.895 339.691C250.225 333.148 272.411 320.397 290.362 304.94C298.552 297.888 301.281 294.284 295.097 298.687C284.499 306.234 260.033 315.576 242.184 318.892C228.701 321.397 205.79 321.653 191.395 319.459C131.394 310.316 82.0192 265.013 67.5542 205.831C59.0772 171.145 62.4482 136.724 77.4272 105.019C97.6552 62.2071 136.366 31.4941 183.633 20.7591C195.246 18.1221 220.162 17.1241 233.484 18.7631C241.813 19.7871 257.443 23.1321 264.538 25.4071C270.029 27.1681 250.629 17.1561 240.395 12.9471C212.655 1.5391 183.202 -2.3479 152.573 1.3571ZM298.185 54.1201C288.962 56.4511 289.561 55.5981 288.376 68.0821C287.801 74.1431 287.488 74.8951 285.315 75.4401C282.168 76.2301 281.809 80.8311 284.895 80.8311C287.362 80.8311 287.378 81.4761 285.386 101.331C283.466 120.474 283.08 122.55 280.612 127.039C277.331 133.008 269.712 133.996 268.391 128.624C268.08 127.363 268.865 115.183 270.135 101.557L272.443 76.7831L266.419 77.4201C255.523 78.5731 253.422 79.2251 253.084 81.5601C252.775 83.6851 252.752 83.6881 250.834 81.7701C249.404 80.3401 247.515 79.8341 243.645 79.8411C225.956 79.8741 212.565 99.1151 212.606 124.441C212.632 140.762 218.681 149.15 230.351 149.045C237.334 148.982 243.149 145.947 247.142 140.283C248.868 137.834 250.545 135.831 250.868 135.831C251.192 135.831 251.948 137.133 252.549 138.725C256.226 148.467 273.698 146.663 281.753 135.709L284.51 131.961L286.332 135.343C292.231 146.298 310.01 142.345 319.563 127.955C319.701 127.749 320.969 128.954 322.382 130.634C330.847 140.694 351.642 137.692 363.298 124.727C367.726 119.803 374.507 109.11 373.709 108.311C372.555 107.157 368.996 109.49 365.895 113.433C357.947 123.538 346.335 127.704 340.4 122.581C338.371 120.829 337.668 119.101 337.225 114.775L336.655 109.219L341.025 107.949C357.527 103.153 368.334 85.1881 362.143 72.8451C359.693 67.9591 356.664 66.6531 348.895 67.1331C330.084 68.2961 318.304 84.7841 317.56 110.992C317.271 121.176 315.916 124.589 311.334 126.677C307.505 128.421 305.101 128.076 303.44 125.541C302.096 123.489 302.172 120.907 304.167 100.791L306.395 78.3311L310.043 78.0271C312.814 77.7961 313.832 77.1951 314.279 75.5271C315.243 71.9301 315.07 71.7791 310.763 72.4681L306.63 73.1291L307.294 66.2301C307.658 62.4361 308.208 57.6441 308.514 55.5811C309.166 51.1901 309.56 51.2461 298.185 54.1201ZM165.282 55.7801C144.003 59.1061 125.981 73.1611 122.737 88.9621C120.537 99.6741 125.148 106.818 134.267 106.827C137.676 106.831 137.984 106.643 136.834 105.258C136.085 104.355 135.34 100.085 135.085 95.2361C134.67 87.3161 134.841 86.3841 137.818 80.3351C143 69.8091 152.772 63.3281 165.21 62.1661C173.201 61.4201 177.859 62.8871 181.818 67.3971C186.915 73.2011 188.379 80.0941 188.387 98.3311C188.396 116.647 186.732 125.647 181.533 135.398C177.456 143.046 172.99 146.182 167.096 145.537C164.731 145.278 162.519 144.788 162.18 144.449C161.637 143.907 167.08 81.2011 168.497 71.6671L169.042 68.0041L159.886 70.3331C154.85 71.6151 150.472 72.9211 150.157 73.2361C149.563 73.8301 141.973 149.792 141.923 155.642L141.895 158.952L149.145 158.254C158.381 157.364 160.895 156.419 160.895 153.835V151.79L164.803 153.784C174.719 158.843 182.76 157.35 191.01 148.919C201.828 137.865 207.277 121.219 207.242 99.3311C207.226 88.9401 206.809 85.0771 205.164 80.0831C201.272 68.2671 194.63 60.4131 185.933 57.3441C180.64 55.4771 171.603 54.7921 165.282 55.7801ZM352.98 75.9901C355.719 81.1071 351.793 93.2151 345.745 98.3041C342.475 101.055 337.975 103.244 337.193 102.463C336.434 101.704 338.987 89.6611 341.109 83.9881C344.508 74.9051 350.308 70.9971 352.98 75.9901ZM250.95 89.3971C252.013 90.6781 252.018 93.7191 250.977 106.147C249.33 125.813 248.503 129.09 244.241 132.832C240.619 136.013 238.889 136.433 235.934 134.852C233.224 133.402 231.893 128.468 231.91 119.932C231.944 102.489 238.588 87.8311 246.46 87.8311C248.214 87.8311 250.235 88.5361 250.95 89.3971ZM431.725 133.175C427.506 134.365 423.856 135.561 423.614 135.835C423.371 136.108 422.893 151.308 422.551 169.613L421.93 202.895L427.163 202.228C430.04 201.86 432.546 201.432 432.731 201.276C433.041 201.015 442.895 133.515 442.895 131.656C442.895 130.418 440.203 130.784 431.725 133.175ZM389.054 151.327C384.466 152.621 380.463 153.93 380.157 154.235C379.722 154.671 378.772 162.379 377.958 172.081C377.923 172.493 376.995 172.831 375.895 172.831C374.354 172.831 373.895 173.498 373.895 175.737C373.895 178.19 374.22 178.559 375.977 178.099C377.91 177.594 378.019 177.869 377.496 181.943C377.186 184.356 376.417 193.081 375.786 201.331C374.358 219.994 372.355 226.323 367.193 228.48C364.068 229.785 363.441 229.764 361.166 228.273C358.678 226.642 358.64 226.437 359.274 217.97C361.603 186.859 361.349 184.074 355.752 179.364C353.35 177.343 351.658 176.831 347.383 176.831C340.797 176.831 338.147 177.793 333.506 181.868C329.234 185.618 329.467 187.234 331.233 166.089C332.286 153.478 332.249 151.895 330.908 152.274C330.076 152.509 325.786 153.652 321.376 154.813L313.356 156.926L310.61 191.248C308.988 211.531 307.217 227.772 306.282 230.951C305.084 235.025 303.449 237.545 299.547 241.331C294.59 246.142 294.385 246.236 294.125 243.831C293.977 242.456 294.937 228.281 296.26 212.331C297.583 196.381 298.579 183.231 298.475 183.11C298.371 182.988 294.148 183.398 289.09 184.021C280.44 185.086 279.895 185.292 279.895 187.492C279.895 188.778 279.445 189.831 278.895 189.831C278.345 189.831 277.895 189.453 277.895 188.992C277.895 187.819 273.261 185.831 270.529 185.831C260.831 185.831 250.299 193.412 245.15 204.097C241.001 212.709 239.656 218.749 239.415 229.854C239.301 235.092 238.674 240.375 238.022 241.594C236.58 244.288 231.918 246.831 228.42 246.831C224.071 246.831 223.83 244.111 225.93 218.661C226.988 205.829 227.863 194.614 227.874 193.738C227.893 192.306 226.979 192.271 218.824 193.392C213.835 194.078 209.593 194.8 209.398 194.995C208.76 195.633 205.895 234.215 205.895 242.166C205.895 254.957 210.381 260.831 220.149 260.831C227.481 260.831 239.138 253.52 241.121 247.678C241.428 246.773 242.516 247.441 244.44 249.717C251.325 257.863 263.151 257.805 271.645 249.584C273.682 247.613 274.89 246.978 274.881 247.885C274.845 251.691 273.307 253.985 269.162 256.415C262.44 260.354 257.15 265.527 255.866 269.418C254.63 273.164 255.3 279.404 257.205 281.877C261.602 287.588 270.998 288.577 279.692 284.245C288.002 280.104 291.359 273.698 292.521 259.765L293.181 251.854L297.289 249.446C299.549 248.122 302.254 246.092 303.301 244.935C305.902 242.061 306.628 242.292 306.108 245.831C305.782 248.057 306.066 248.831 307.209 248.831C309.048 248.831 324.305 246.747 324.601 246.455C324.715 246.343 325.505 237.27 326.357 226.292C327.209 215.313 328.387 203.963 328.975 201.069C330.949 191.351 337.776 186.668 341.557 192.438C343.127 194.833 343.164 196.403 342.016 211.76C340.709 229.264 340.949 232.327 344.032 237.463C349.502 246.575 366.272 244.342 373.336 233.562C375.477 230.294 376.535 230.123 377.417 232.9C378.398 235.991 383.779 238.823 388.677 238.827C396.333 238.834 404.945 233.88 409.318 226.953C411.974 222.745 415.565 212.168 414.649 211.252C413.092 209.695 410.001 212.266 408.405 216.443C405.525 223.986 396.011 227.898 393.921 222.4C392.825 219.517 396.056 177.255 397.479 175.874C397.983 175.385 399.745 174.838 401.395 174.658C403.753 174.401 404.458 173.79 404.69 171.8C404.97 169.406 404.766 169.29 400.919 169.657L396.852 170.045L397.41 164.188C397.716 160.967 398.191 156.194 398.465 153.581C398.74 150.968 398.611 148.863 398.179 148.902C397.748 148.942 393.642 150.033 389.054 151.327ZM195.354 163.089L189.312 163.95L186.998 197.141C185.726 215.395 184.372 231.658 183.989 233.28C183.402 235.771 181.458 231.168 171.465 203.63C164.959 185.7 159.258 170.423 158.797 169.68C157.489 167.576 145.489 168.216 138.791 170.747C135.709 171.912 130.759 174.56 127.791 176.631C110.758 188.518 106.823 214.313 121.21 219.764C123.88 220.776 129.895 221.256 129.895 220.458C129.895 220.253 128.915 217.891 127.716 215.208C124.905 208.916 124.69 199.159 127.217 192.609C129.739 186.072 142.112 174.908 140.547 180.581C139.771 183.394 132.438 270.712 132.94 271.167C133.513 271.687 143.689 270.371 144.371 269.688C144.649 269.41 146.31 254.468 148.063 236.484C149.815 218.5 151.548 204.133 151.914 204.558C152.28 204.983 157.675 218.992 163.903 235.688L175.227 266.045L180.311 265.416C183.107 265.07 187.216 264.535 189.441 264.226L193.488 263.665L197.771 213.161C200.127 185.384 201.906 162.561 201.725 162.443C201.543 162.325 198.676 162.615 195.354 163.089ZM212.818 167.754C207.133 173.44 209.69 183.486 217.309 185.399C222.655 186.74 228.323 183.519 229.745 178.331C232.554 168.079 220.208 160.364 212.818 167.754ZM277.211 195.628C278.702 197.275 278.714 198.836 277.354 214.378C276.538 223.702 275.393 232.786 274.81 234.565C272.666 241.11 265.146 243.98 261.3 239.722C259.632 237.875 259.401 236.039 259.443 224.972C259.483 214.543 259.875 211.281 261.681 206.331C265.321 196.353 273.048 191.028 277.211 195.628ZM422.283 213.811C418.893 215.181 415.895 219.759 415.895 223.566C415.895 228.56 421.287 233.831 426.395 233.831C429.27 233.831 430.854 233.072 433.495 230.431C436.136 227.79 436.895 226.206 436.895 223.331C436.895 220.456 436.136 218.872 433.495 216.231C430 212.736 426.705 212.025 422.283 213.811ZM273.256 265.581C272.382 272.485 269.947 276.331 266.448 276.331C260.003 276.331 261.022 269.117 268.215 263.827C270.456 262.179 272.642 260.831 273.073 260.831C273.504 260.831 273.586 262.968 273.256 265.581Z" fill="white"/>
</svg>
